<?xml version="1.0" standalone="no"?>
<!DOCTYPE svg PUBLIC "-//W3C//DTD SVG 20010904//EN"
 "http://www.w3.org/TR/2001/REC-SVG-20010904/DTD/svg10.dtd">
<svg version="1.0" xmlns="http://www.w3.org/2000/svg"
 width="384.386467pt" height="116.958052pt" viewBox="0 0 384.386467 116.958052"
 preserveAspectRatio="xMidYMid meet">
<metadata>
Created by potrace 1.12, written by Peter Selinger 2001-2015
</metadata>
<g transform="translate(-3.613533,120.958052) scale(0.100000,-0.100000)"
fill="#000000" stroke="none">
<path d="M1980 1200 c40 -36 90 -73 90 -67 0 2 -28 25 -62 51 -35 26 -47 33
-28 16z"/>
<path d="M2192 1178 c-17 -17 -15 -26 6 -31 15 -4 15 -5 -3 -13 -26 -12 -30
-34 -6 -34 22 0 35 48 19 68 -7 8 -7 12 0 12 6 0 16 -8 22 -17 10 -17 10 -16
8 2 -4 23 -28 31 -46 13z"/>
<path d="M1830 1169 c0 -9 -11 -21 -25 -27 -33 -15 -36 -15 -29 2 3 7 -2 16
-12 20 -12 5 -15 2 -10 -10 3 -8 6 -20 6 -25 0 -12 37 -12 45 1 3 6 10 10 15
10 9 0 2 -39 -11 -55 -4 -6 -4 -17 0 -24 5 -7 6 -22 4 -32 -3 -11 -1 -25 5
-32 5 -6 13 -27 17 -44 3 -18 8 -33 10 -33 1 0 22 9 46 19 l42 19 -29 5 -29 4
33 2 c39 1 41 -11 5 -38 -23 -17 -25 -20 -10 -21 21 0 77 36 77 50 0 5 -9 12
-21 15 -11 4 -18 9 -15 12 3 4 2 11 -4 18 -6 8 1 10 25 7 36 -4 44 5 23 26 -9
9 -5 12 20 12 35 0 40 -7 18 -24 -11 -8 -13 -20 -8 -44 7 -34 29 -46 24 -12
-2 13 2 17 15 15 10 -2 20 -4 23 -4 2 -1 -1 -6 -7 -12 -9 -9 -8 -15 2 -25 18
-19 25 -18 26 4 0 13 2 12 9 -6 10 -22 4 -52 -10 -52 -4 0 -19 -11 -34 -25
-45 -42 -27 -63 21 -25 29 23 59 26 66 8 3 -9 10 -8 26 6 16 15 24 17 33 8 15
-15 31 -16 22 -1 -5 8 -1 8 14 0 11 -6 29 -11 39 -11 16 1 16 2 -2 12 -32 18
-45 41 -39 67 3 13 -2 34 -11 47 -22 33 -11 30 41 -12 24 -20 44 -34 44 -31 0
2 -30 29 -67 59 -57 46 -73 54 -103 51 -26 -2 -31 0 -20 7 10 7 -16 10 -83 10
-88 0 -97 2 -83 15 8 8 19 15 25 15 6 0 11 4 11 9 0 15 -73 1 -90 -18 -8 -9
-22 -17 -30 -17 -8 -1 -22 -4 -30 -6 -8 -3 -12 -3 -7 -1 10 7 8 95 -3 113 -8
13 -10 13 -10 -1z m77 -133 c0 -8 -10 -12 -29 -10 -28 4 -41 -18 -18 -29 6 -3
5 -4 -2 -3 -17 3 -23 37 -9 45 20 13 58 11 58 -3z m280 -15 c6 6 14 4 22 -5
10 -12 4 -14 -37 -12 -29 0 -49 6 -49 12 0 8 9 9 28 4 15 -5 31 -4 36 1z m-68
-41 c4 0 12 5 18 11 13 13 53 2 53 -15 0 -7 -6 -20 -13 -30 -13 -18 -14 -18
-20 -2 -4 10 -5 22 -2 27 4 5 -1 6 -10 3 -20 -8 -11 -42 18 -68 22 -18 22 -18
25 10 5 45 17 47 19 4 2 -31 -1 -39 -19 -43 -29 -8 -46 7 -58 54 -6 22 -15 39
-20 39 -6 0 -9 10 -9 23 1 16 2 18 6 5 2 -10 8 -18 12 -18z m111 -77 c0 -32
-5 -28 -14 10 -4 19 -3 26 4 22 5 -3 10 -18 10 -32z m-111 -26 c-2 -2 -17 -11
-34 -22 l-30 -18 19 21 c11 12 26 22 34 22 9 0 13 -1 11 -3z"/>
<path d="M2081 1137 c-6 -8 -7 -18 -3 -23 4 -5 -2 -1 -14 9 -27 22 -52 24 -34
2 7 -8 9 -15 6 -15 -4 0 -2 -9 5 -21 9 -17 18 -20 55 -17 24 2 44 0 44 -3 0
-13 29 -18 36 -7 5 7 2 8 -6 3 -9 -5 -11 -4 -6 3 10 17 26 15 26 -3 0 -8 5
-15 10 -15 6 0 10 9 10 20 0 19 -15 25 -58 23 -10 -1 -13 8 -10 28 4 23 1 29
-11 27 -11 -2 -15 -12 -13 -28 3 -21 2 -22 -11 -11 -9 7 -13 19 -10 27 7 18
-1 18 -16 1z"/>
<path d="M1678 1053 c23 -2 61 -2 85 0 23 2 4 4 -43 4 -47 0 -66 -2 -42 -4z"/>
<path d="M1785 1010 c3 -6 -4 -10 -17 -11 -76 -1 -104 -9 -125 -35 -23 -29
-34 -76 -22 -96 5 -8 12 -3 20 15 7 15 20 27 31 27 22 0 22 -1 4 -45 -22 -53
3 -65 29 -14 9 17 19 29 22 26 2 -3 0 -15 -7 -26 -6 -12 -7 -21 -3 -21 4 1 17
21 29 45 20 43 20 44 1 49 -17 4 -18 7 -7 20 7 9 17 16 23 16 7 0 7 -4 -1 -12
-19 -19 15 -38 44 -24 25 12 32 26 12 26 -6 0 -9 3 -5 6 8 8 -13 64 -25 64 -5
0 -6 -4 -3 -10z m-65 -54 c-14 -14 -24 0 -16 21 6 15 8 15 16 3 6 -9 5 -19 0
-24z m73 12 c5 -19 4 -21 -6 -8 -7 9 -20 14 -31 12 -11 -2 -16 0 -12 7 12 19
43 12 49 -11z m-132 -41 c-8 -8 -11 -5 -11 9 0 27 14 41 18 19 2 -9 -1 -22 -7
-28z m69 -20 c0 -2 -11 -18 -25 -37 -14 -19 -25 -31 -25 -26 0 15 31 66 40 66
6 0 10 -1 10 -3z"/>
<path d="M1881 715 c-51 -16 -94 -54 -124 -110 -32 -60 -31 -174 4 -240 49
-96 164 -137 273 -98 27 10 51 23 54 30 2 8 -8 6 -30 -5 -51 -26 -154 -23
-196 6 -54 39 -76 94 -77 192 0 72 4 92 25 130 35 62 80 90 146 90 69 0 131
-24 137 -53 2 -12 5 -4 6 19 l1 41 -52 7 c-76 9 -117 6 -167 -9z"/>
<path d="M43 698 l27 -10 0 -208 0 -209 -27 -4 c-16 -2 8 -4 52 -4 44 0 68 2
54 4 -31 5 -39 34 -39 146 l0 67 38 -1 c59 -2 86 -13 93 -39 4 -16 7 -1 7 40
0 36 -2 57 -5 47 -6 -23 -42 -37 -94 -37 l-39 0 0 53 c0 28 3 76 7 106 l6 53
65 -7 c81 -9 92 -13 102 -39 7 -17 9 -14 9 17 l1 37 -142 -1 c-108 0 -136 -3
-115 -11z"/>
<path d="M373 430 c-52 -109 -79 -153 -95 -160 -18 -7 -9 -9 37 -8 33 0 52 2
42 5 -20 5 -18 32 6 83 11 23 18 25 76 25 l64 0 18 -52 c16 -48 16 -52 1 -56
-9 -3 10 -5 43 -5 35 0 52 2 41 7 -19 8 -49 70 -101 216 -18 50 -39 91 -46 92
-9 2 -41 -53 -86 -147z m117 -31 c0 -5 -25 -9 -55 -9 -30 0 -55 2 -55 4 0 2
14 34 31 72 l31 69 24 -64 c13 -35 24 -67 24 -72z"/>
<path d="M2227 426 c-60 -122 -82 -156 -99 -159 -13 -2 4 -4 37 -4 33 -1 52 1
43 4 -10 2 -18 6 -18 9 0 13 35 90 44 96 6 4 36 8 68 8 l56 0 16 -47 c20 -58
20 -61 -1 -66 -10 -3 11 -5 47 -5 46 -1 59 2 44 8 -22 8 -49 66 -110 232 -16
43 -34 78 -39 78 -6 0 -46 -69 -88 -154z m101 31 c12 -33 22 -61 22 -63 0 -2
-25 -4 -55 -4 -30 0 -55 3 -55 8 0 18 55 131 60 124 4 -4 16 -33 28 -65z"/>
<path d="M2575 571 c-55 -23 -76 -95 -38 -133 10 -10 43 -26 73 -35 69 -23 94
-58 70 -100 -20 -36 -62 -49 -111 -34 -22 7 -39 18 -39 26 0 8 -4 15 -8 15 -4
0 -7 -12 -6 -27 1 -27 3 -28 57 -31 102 -5 169 44 151 111 -10 32 -21 40 -119
84 -34 15 -41 23 -43 51 -5 46 12 62 65 62 36 0 45 -4 53 -22 9 -21 9 -20 7 7
-2 28 -5 30 -47 32 -25 1 -54 -2 -65 -6z"/>
<path d="M677 563 c19 -4 22 -12 25 -76 2 -40 2 -105 0 -144 -3 -67 -5 -73
-25 -75 -12 0 7 -4 43 -7 36 -4 82 -4 103 0 98 17 120 120 31 149 l-36 12 28
15 c16 8 32 20 36 26 14 22 8 67 -12 87 -17 17 -32 20 -117 19 -54 -1 -88 -4
-76 -6z m143 -13 c24 -13 33 -53 19 -84 -12 -26 -70 -53 -89 -41 -11 7 -14 93
-4 119 7 18 46 21 74 6z m18 -156 c15 -11 22 -25 22 -50 0 -44 -29 -74 -74
-74 -39 0 -46 14 -46 93 l0 47 38 0 c21 0 48 -7 60 -16z"/>
<path d="M998 560 c21 -9 22 -14 22 -137 0 -70 -4 -133 -8 -139 -4 -7 -16 -14
-27 -17 -11 -2 35 -5 103 -6 l122 -1 0 25 c0 14 -4 25 -10 25 -5 0 -10 -6 -10
-14 0 -13 -48 -26 -102 -26 -28 0 -28 0 -28 70 l0 70 33 0 c36 0 51 -8 60 -30
3 -8 5 8 5 35 0 28 -2 43 -5 35 -9 -22 -24 -30 -60 -30 l-33 0 0 70 0 70 38 0
c52 0 82 -10 82 -26 0 -8 5 -14 10 -14 6 0 10 11 10 25 l0 25 -112 -1 c-78 0
-106 -3 -90 -9z"/>
<path d="M1288 563 c22 -4 23 -6 20 -146 -3 -141 -3 -141 -28 -148 -15 -4 2
-7 45 -7 39 1 60 3 48 5 -21 4 -23 10 -23 76 l1 72 72 -77 c68 -73 76 -78 112
-77 31 0 36 2 20 9 -22 9 -152 137 -144 143 2 1 21 10 42 20 33 15 57 47 57
78 0 5 -11 21 -25 34 -22 23 -30 25 -122 24 -54 -1 -88 -4 -75 -6z m154 -20
c44 -39 7 -113 -57 -113 l-35 0 0 58 c0 32 3 62 7 65 12 13 67 7 85 -10z"/>
<path d="M2766 554 c-9 -23 -7 -34 4 -34 6 0 10 6 10 14 0 15 30 26 73 26 l27
0 0 -99 c0 -144 -8 -189 -34 -194 -11 -2 11 -4 49 -4 39 0 60 2 48 4 -23 4
-23 7 -23 144 0 155 1 157 65 145 26 -5 35 -12 35 -27 0 -11 5 -17 10 -14 6 3
10 17 10 31 l0 24 -134 0 c-113 0 -135 -2 -140 -16z"/>
<path d="M3108 563 c22 -4 23 -6 20 -146 -3 -141 -3 -141 -28 -148 -14 -4 30
-7 98 -8 l122 -1 0 28 c-1 25 -2 25 -14 9 -9 -11 -34 -19 -75 -23 l-61 -7 0
72 0 71 33 0 c36 0 51 -8 60 -30 3 -8 5 8 5 35 0 28 -2 43 -5 35 -9 -22 -24
-30 -60 -30 l-33 0 0 70 0 70 38 0 c52 0 82 -10 82 -26 0 -8 5 -14 10 -14 6 0
10 11 10 25 l0 25 -112 -1 c-62 -1 -103 -4 -90 -6z"/>
<path d="M3393 563 l27 -4 0 -144 0 -144 -27 -4 c-16 -2 25 -5 90 -6 l117 -1
0 27 c0 25 -1 26 -14 8 -9 -13 -30 -20 -70 -23 l-57 -5 3 144 3 143 25 7 c15
4 -6 7 -50 7 -41 -1 -63 -3 -47 -5z"/>
<path d="M3673 563 l28 -4 -3 -142 c-3 -141 -3 -141 -28 -148 -14 -4 28 -7 93
-8 l117 -1 0 28 c-1 26 -1 26 -15 8 -10 -14 -31 -21 -70 -24 l-55 -4 0 141 c0
138 1 142 23 151 16 6 3 8 -48 8 -38 -1 -58 -3 -42 -5z"/>
<path d="M1540 420 c0 -6 32 -10 75 -10 43 0 75 4 75 10 0 6 -32 10 -75 10
-43 0 -75 -4 -75 -10z"/>
<path d="M2040 151 c0 -10 -7 -37 -15 -60 -8 -22 -10 -41 -5 -41 5 0 16 24 24
54 19 64 19 66 6 66 -5 0 -10 -8 -10 -19z"/>
<path d="M2090 162 c0 -5 14 -6 31 -4 30 4 31 4 19 -19 -7 -13 -22 -37 -33
-52 -10 -16 -17 -30 -14 -33 2 -2 20 23 40 56 l36 60 -39 0 c-22 0 -40 -4 -40
-8z"/>
<path d="M2189 140 c-22 -21 -29 -38 -27 -56 4 -35 31 -53 52 -35 21 18 20 57
-1 66 -15 5 -16 4 -5 -6 17 -18 15 -48 -4 -56 -21 -8 -38 12 -29 34 9 20 12
29 14 43 0 5 13 16 29 24 15 8 21 15 14 16 -8 0 -27 -13 -43 -30z"/>
<path d="M2284 161 c4 -5 2 -20 -2 -33 -20 -52 -22 -76 -8 -81 10 -4 12 0 9
13 -3 11 2 40 10 65 14 40 14 45 1 45 -8 0 -13 -4 -10 -9z"/>
<path d="M1702 109 c-19 -50 -23 -69 -15 -69 5 0 14 19 20 42 13 47 9 65 -5
27z"/>
<path d="M1799 128 c0 -2 -2 -12 -4 -23 -2 -11 -6 -31 -9 -45 -4 -14 -3 -18 0
-10 4 8 13 27 20 42 9 17 10 29 4 33 -6 3 -10 5 -11 3z"/>
<path d="M1746 106 c3 -8 0 -24 -6 -36 -20 -36 -4 -33 18 4 21 35 19 46 -4 46
-8 0 -11 -6 -8 -14z"/>
<path d="M1904 95 c-9 -14 -14 -32 -10 -40 9 -25 22 -17 20 13 -1 15 3 33 9
40 5 6 7 12 3 12 -3 0 -13 -11 -22 -25z"/>
<path d="M1630 104 c0 -5 7 -19 15 -30 8 -10 15 -14 15 -8 0 5 -7 19 -15 30
-8 10 -15 14 -15 8z"/>
<path d="M1842 98 c-15 -15 -16 -45 -1 -54 6 -3 16 -1 22 6 9 10 9 11 0 6 -17
-10 -25 11 -13 34 12 23 10 26 -8 8z"/>
</g>
</svg>
