<?xml version="1.0" standalone="no"?>
<!DOCTYPE svg PUBLIC "-//W3C//DTD SVG 20010904//EN"
 "http://www.w3.org/TR/2001/REC-SVG-20010904/DTD/svg10.dtd">
<svg version="1.0" xmlns="http://www.w3.org/2000/svg"
 width="309.737533pt" height="121.204001pt" viewBox="0 0 309.737533 121.204001"
 preserveAspectRatio="xMidYMid meet">
<metadata>
Created by potrace 1.12, written by Peter Selinger 2001-2015
</metadata>
<g transform="translate(0.237533,121.122001) scale(0.100000,-0.100000)"
fill="#000000" stroke="none">
<path d="M195 1198 c-3 -7 2 -44 11 -83 21 -95 30 -361 15 -467 -26 -184 -81
-345 -172 -504 l-51 -88 33 -29 34 -28 23 28 c34 42 128 238 157 326 46 145
60 239 60 422 0 171 -10 248 -50 383 -12 40 -20 52 -36 52 -11 0 -22 -6 -24
-12z"/>
<path d="M313 1098 c82 -324 23 -731 -147 -1015 -26 -42 -45 -77 -43 -79 6 -6
102 23 137 41 100 51 184 143 223 243 22 56 44 198 53 340 l7 114 126 -214
c140 -235 159 -254 235 -243 41 6 96 31 109 49 20 28 -26 361 -64 462 -11 29
-40 76 -65 103 -43 48 -110 98 -120 89 -2 -3 7 -32 21 -65 23 -59 57 -179 70
-253 l6 -35 -23 30 c-106 138 -275 343 -329 400 -66 69 -150 128 -200 140
l-25 6 29 -113z"/>
<path d="M1178 751 c-46 -15 -83 -42 -108 -79 -33 -47 -41 -181 -15 -233 40
-79 112 -119 215 -119 103 0 175 40 215 119 27 53 18 186 -15 234 -39 57 -91
80 -185 84 -44 1 -92 -1 -107 -6z m157 -103 c49 -43 44 -186 -8 -223 -28 -19
-86 -19 -114 0 -31 22 -46 78 -40 144 7 70 37 101 97 101 26 0 48 -7 65 -22z"/>
<path d="M1781 749 c-24 -5 -54 -15 -67 -24 -30 -19 -31 -19 -37 5 -5 19 -12
21 -69 18 l-63 -3 0 -205 0 -205 65 0 65 0 5 138 c5 131 6 140 29 158 18 15
39 19 92 19 l69 0 0 49 c0 46 -12 64 -38 60 -4 -1 -27 -5 -51 -10z"/>
<path d="M1928 749 c-16 -9 -18 -30 -18 -202 0 -106 4 -198 9 -205 5 -9 26
-12 67 -10 l59 3 3 142 3 142 31 26 c25 21 38 25 62 21 17 -4 35 -11 41 -17 5
-5 12 -78 15 -162 l5 -152 60 0 60 0 3 140 c2 126 5 142 24 162 29 31 73 39
103 19 24 -16 25 -20 27 -169 l3 -152 65 0 65 0 0 162 c0 180 -4 192 -76 241
-49 34 -132 28 -193 -15 -44 -31 -44 -31 -63 -11 -49 54 -136 64 -197 23 -26
-18 -36 -21 -36 -10 0 31 -83 47 -122 24z"/>
<path d="M2766 745 c-21 -7 -45 -20 -53 -27 -16 -16 -34 -74 -25 -82 3 -3 27
-6 54 -6 35 0 54 6 68 20 14 14 33 20 66 20 61 0 84 -14 84 -50 l0 -30 -92 0
c-148 -1 -208 -38 -208 -132 0 -38 6 -54 30 -81 51 -58 168 -74 250 -34 30 15
34 15 44 1 9 -11 25 -14 61 -12 l50 3 0 162 c0 147 -2 164 -21 190 -36 49 -97
73 -189 73 -44 -1 -98 -7 -119 -15z m204 -270 c0 -31 -37 -56 -94 -62 -52 -6
-86 10 -86 40 0 38 19 47 102 47 76 0 78 -1 78 -25z"/>
</g>
</svg>
