<?xml version="1.0" standalone="no"?>
<!DOCTYPE svg PUBLIC "-//W3C//DTD SVG 20010904//EN"
 "http://www.w3.org/TR/2001/REC-SVG-20010904/DTD/svg10.dtd">
<svg version="1.0" xmlns="http://www.w3.org/2000/svg"
 width="1154.196632pt" height="348.830832pt" viewBox="0 0 1154.196632 348.830832"
 preserveAspectRatio="xMidYMid meet">
<metadata>
Created by potrace 1.12, written by Peter Selinger 2001-2015
</metadata>
<g transform="translate(-19.516396,361.829667) scale(0.100000,-0.100000)"
fill="#000000" stroke="none">
<path d="M4142 3608 c-34 -17 -88 -137 -121 -268 -16 -63 -50 -232 -76 -375
-87 -486 -140 -633 -239 -664 -17 -6 -68 -17 -114 -25 -46 -9 -91 -20 -102
-26 -25 -13 -54 -103 -46 -144 9 -46 46 -76 164 -135 l104 -52 -7 -42 c-4 -23
-29 -159 -56 -302 -113 -593 -125 -790 -54 -873 19 -22 31 -27 67 -26 62 1
122 36 152 86 60 104 105 331 166 838 48 399 54 431 88 472 56 66 216 113 358
106 46 -2 89 -9 95 -15 7 -7 3 -43 -11 -114 -31 -153 -52 -225 -155 -534 -100
-298 -131 -432 -120 -519 20 -160 171 -292 310 -272 66 10 170 66 290 156 100
75 191 130 213 130 5 0 16 -26 25 -59 20 -71 69 -138 122 -168 49 -28 155 -31
236 -7 97 29 248 113 370 207 l37 28 30 -54 c57 -101 158 -167 258 -167 61 0
161 34 224 77 121 81 201 186 305 398 77 157 119 270 186 497 68 234 107 348
130 380 20 28 94 61 165 72 63 11 111 -13 119 -58 12 -61 -11 -135 -128 -416
-201 -480 -219 -662 -85 -833 73 -92 181 -115 306 -64 34 13 121 64 192 112
72 49 133 86 136 82 3 -3 -6 -92 -20 -199 -62 -461 -55 -636 26 -692 25 -18
122 -22 162 -6 54 20 73 98 116 482 81 717 159 1040 322 1331 135 241 228 327
355 327 64 0 86 -23 104 -108 47 -229 -128 -875 -280 -1033 -55 -57 -79 -61
-114 -19 -36 42 -41 79 -26 185 6 51 9 100 6 109 -20 51 -118 -28 -174 -140
-45 -93 -55 -191 -28 -274 25 -76 102 -153 174 -174 68 -20 84 -20 149 -1 156
47 316 287 450 676 99 287 124 626 67 899 -20 93 -29 114 -72 157 -56 56 -104
76 -182 75 -112 -1 -219 -49 -367 -163 -74 -56 -79 -58 -82 -37 -2 13 11 67
28 122 38 126 38 166 0 233 -40 70 -70 90 -110 73 -82 -34 -159 -240 -281
-751 -73 -308 -112 -427 -184 -567 -113 -220 -257 -361 -406 -397 -24 -6 -28
-3 -44 39 -14 35 -17 63 -12 119 6 80 31 154 127 377 117 273 157 432 147 590
-7 110 -28 170 -77 214 -55 50 -102 54 -283 26 -81 -12 -150 -20 -153 -18 -2
3 0 47 6 98 10 92 6 154 -13 178 -12 15 -76 16 -114 1 -48 -18 -73 -50 -140
-182 -35 -70 -72 -131 -81 -136 -9 -4 -40 -11 -68 -14 -84 -9 -185 -48 -208
-80 -29 -39 -29 -125 0 -164 29 -39 80 -72 132 -85 l45 -11 -6 -106 c-8 -162
-91 -459 -172 -621 -43 -85 -104 -165 -150 -199 -31 -21 -48 -26 -100 -26 -53
0 -68 4 -89 24 -57 54 -44 156 65 491 87 267 109 356 109 445 0 81 -13 112
-57 140 -22 14 -37 35 -48 67 -39 114 -137 223 -229 255 -71 25 -184 22 -257
-6 -166 -63 -334 -231 -437 -436 -49 -98 -88 -222 -147 -461 -30 -123 -69
-260 -86 -304 -56 -145 -147 -241 -263 -275 -71 -21 -83 -19 -95 16 -28 82 -4
209 105 542 111 339 137 446 138 567 1 143 -39 219 -139 266 -42 20 -66 24
-152 24 -56 0 -149 -6 -205 -14 -185 -26 -189 -26 -184 -8 8 28 74 369 96 496
52 304 66 549 34 595 -31 44 -111 63 -162 39z m1779 -1349 c31 -16 39 -24 33
-37 -12 -29 -160 -478 -214 -652 -29 -91 -67 -198 -87 -239 -55 -115 -131
-186 -219 -205 -30 -7 -33 -4 -52 36 -52 110 -53 272 -3 471 56 223 162 430
281 549 95 95 178 120 261 77z"/>
<path d="M2640 3599 c-426 -53 -902 -206 -1156 -371 -242 -157 -364 -341 -364
-548 0 -172 69 -291 237 -412 148 -106 306 -180 796 -373 504 -198 687 -315
728 -468 49 -181 -236 -421 -727 -612 -269 -105 -545 -158 -889 -172 -251 -9
-452 13 -750 83 -82 20 -176 36 -207 37 -51 2 -61 -1 -85 -26 -25 -24 -28 -35
-28 -91 0 -51 5 -70 27 -103 43 -65 167 -114 388 -152 222 -39 319 -46 620
-46 l295 0 205 38 c832 153 1268 376 1470 750 98 182 104 366 17 531 -43 82
-187 225 -307 305 -139 92 -415 224 -750 356 -336 133 -471 195 -556 252 -186
126 -192 235 -20 358 195 139 611 286 1006 355 174 30 444 38 560 16 141 -26
250 -92 250 -150 0 -22 -50 -76 -105 -113 -16 -12 -124 -76 -240 -143 -379
-222 -406 -243 -408 -326 -2 -78 63 -127 174 -128 61 -1 74 3 203 67 256 125
444 271 545 422 62 94 91 171 98 262 8 104 -9 156 -71 218 -83 82 -214 135
-421 171 -108 18 -429 27 -535 13z"/>
<path d="M9725 3193 c-53 -28 -123 -104 -152 -167 -24 -53 -28 -73 -28 -152 0
-84 2 -93 29 -128 70 -92 188 -80 284 29 114 130 132 320 37 404 -30 26 -43
31 -88 31 -29 -1 -65 -8 -82 -17z"/>
<path d="M10280 2626 c-189 -54 -339 -195 -457 -431 -156 -310 -203 -679 -123
-961 l18 -63 -35 -7 c-19 -4 -79 -4 -133 -2 -127 6 -184 32 -218 98 -21 40
-23 55 -19 130 10 177 71 358 242 710 143 297 165 367 130 417 -23 33 -86 47
-129 29 -125 -52 -327 -392 -442 -745 -97 -296 -133 -518 -104 -642 15 -66 70
-174 115 -226 73 -86 197 -122 351 -103 48 6 137 22 200 35 63 14 131 25 153
25 34 0 40 -4 52 -32 22 -55 155 -180 234 -220 155 -80 339 -107 495 -74 176
37 279 120 370 297 65 126 94 230 94 339 1 96 -14 133 -62 151 -56 21 -88 -21
-177 -240 -56 -136 -81 -178 -132 -220 -66 -55 -134 -75 -248 -75 -78 1 -112
5 -156 23 -152 59 -240 172 -198 254 6 12 84 96 174 187 213 217 291 334 356
532 39 122 59 240 59 357 0 128 -14 200 -56 288 -71 150 -201 212 -354 169z
m66 -360 c17 -13 19 -27 18 -133 -1 -100 -5 -131 -29 -203 -33 -103 -72 -182
-137 -278 -49 -73 -173 -212 -189 -212 -4 0 -13 17 -18 38 -58 206 121 722
274 788 39 17 57 17 81 0z"/>
<path d="M11402 1391 c-60 -21 -114 -67 -145 -126 -30 -56 -30 -164 0 -220 45
-86 128 -134 228 -135 235 0 341 282 163 434 -42 36 -119 66 -167 66 -14 -1
-50 -9 -79 -19z m183 -54 c139 -79 133 -298 -9 -367 -96 -46 -221 -9 -266 80
-56 109 -21 237 78 290 53 28 145 27 197 -3z"/>
<path d="M11390 1155 c0 -138 1 -145 20 -145 18 0 20 7 20 66 0 65 0 65 27 62
20 -2 35 -17 63 -63 24 -39 44 -61 58 -63 30 -5 28 5 -15 68 -26 39 -32 55
-23 58 8 3 24 15 37 28 31 31 30 78 -2 109 -22 22 -32 25 -105 25 l-80 0 0
-145z m155 65 c0 -33 -2 -35 -42 -44 -60 -12 -73 -4 -73 44 l0 41 58 -3 57 -3
0 -35z"/>
</g>
</svg>
