<?xml version="1.0" standalone="no"?>
<!DOCTYPE svg PUBLIC "-//W3C//DTD SVG 20010904//EN"
 "http://www.w3.org/TR/2001/REC-SVG-20010904/DTD/svg10.dtd">
<svg version="1.0" xmlns="http://www.w3.org/2000/svg"
 width="546.113132pt" height="183.429625pt" viewBox="0 0 546.113132 183.429625"
 preserveAspectRatio="xMidYMid meet">
<metadata>
Created by potrace 1.12, written by Peter Selinger 2001-2015
</metadata>
<g transform="translate(-18.315735,396.868258) scale(0.100000,-0.100000)"
fill="#000000" stroke="none">
<path d="M3160 3959 c-62 -26 -100 -85 -100 -154 0 -100 68 -169 165 -169 158
0 226 204 100 299 -41 32 -120 43 -165 24z"/>
<path d="M3715 3955 c-67 -37 -95 -80 -95 -151 0 -96 71 -168 165 -168 94 0
165 72 165 168 0 58 -19 97 -66 132 -45 34 -124 43 -169 19z"/>
<path d="M297 3496 c-52 -19 -83 -50 -103 -102 -30 -78 4 -167 77 -204 31 -16
59 -20 152 -20 82 0 119 -4 133 -14 18 -14 19 -33 24 -458 5 -441 5 -443 28
-480 57 -92 171 -110 253 -41 59 50 59 52 59 518 l0 426 25 24 c23 24 31 25
134 25 60 0 122 5 138 11 124 47 142 223 30 297 l-41 27 -435 2 c-353 2 -443
0 -474 -11z m908 -62 c33 -15 65 -64 65 -99 0 -22 -25 -68 -46 -86 -12 -10
-55 -16 -144 -19 -137 -6 -163 -15 -197 -67 -16 -25 -18 -69 -23 -469 l-5
-442 -24 -26 c-32 -34 -84 -43 -128 -22 -62 30 -63 37 -63 506 0 458 0 458
-57 495 -22 15 -52 20 -148 23 -66 2 -131 8 -143 15 -45 22 -67 101 -41 148 5
11 25 29 42 39 30 19 54 20 455 20 365 0 429 -2 457 -16z"/>
<path d="M1885 3494 c-114 -28 -221 -90 -316 -184 -73 -72 -94 -100 -132 -180
-30 -61 -53 -125 -63 -180 -59 -299 94 -604 371 -740 108 -54 190 -73 305 -73
115 0 208 21 302 68 173 87 294 226 355 410 24 70 27 96 27 210 0 116 -3 139
-28 210 -78 227 -272 407 -496 459 -81 19 -245 19 -325 0z m330 -60 c213 -55
399 -248 451 -469 21 -91 15 -244 -15 -335 -61 -193 -223 -350 -421 -412 -112
-34 -265 -32 -375 6 -111 38 -180 83 -263 170 -114 120 -172 265 -172 431 0
174 59 315 185 441 110 110 209 159 385 188 41 7 160 -4 225 -20z"/>
<path d="M1919 3221 c-192 -62 -315 -264 -281 -463 39 -225 254 -384 473 -349
167 27 311 160 348 322 48 206 -73 420 -276 490 -72 24 -187 25 -264 0z m268
-63 c69 -26 142 -93 184 -170 32 -60 34 -68 34 -163 0 -121 -18 -167 -95 -249
-74 -78 -150 -110 -260 -110 -71 -1 -94 4 -142 26 -76 35 -148 104 -184 175
-26 52 -29 68 -29 153 0 82 4 103 27 152 84 180 276 257 465 186z"/>
<path d="M2900 3498 c-83 -24 -125 -85 -118 -173 3 -32 13 -64 26 -83 29 -40
97 -72 154 -72 30 0 54 -7 69 -19 l24 -19 5 -449 c6 -497 3 -479 74 -522 45
-27 80 -33 128 -20 51 12 79 34 107 80 21 33 21 44 21 632 l0 597 255 0 255 0
0 -110 0 -110 -77 0 c-100 0 -146 -13 -177 -51 l-26 -31 0 -445 c0 -441 0
-446 22 -485 63 -111 223 -111 286 0 22 39 22 44 22 495 l0 455 89 4 c99 3
127 16 169 78 49 72 15 196 -65 236 -36 18 -73 19 -623 21 -369 1 -598 -2
-620 -9z m438 -642 l-3 -595 -29 -30 c-38 -40 -88 -50 -132 -26 -64 34 -64 37
-64 508 l0 424 -23 34 c-25 38 -70 58 -132 58 -89 2 -145 81 -110 155 29 60
54 66 288 66 l208 0 -3 -594z m801 560 c36 -35 45 -68 31 -112 -19 -57 -51
-74 -141 -74 l-79 0 0 111 0 111 79 -3 c72 -4 83 -7 110 -33z m-239 -687 c0
-493 0 -492 -67 -524 -46 -22 -92 -13 -129 26 l-29 30 0 436 0 435 24 19 c19
16 39 19 112 19 l89 0 0 -441z"/>
<path d="M4795 3494 c-221 -54 -418 -238 -491 -460 -25 -78 -29 -104 -29 -209
0 -128 19 -215 70 -315 87 -171 265 -311 453 -357 88 -21 239 -21 322 0 246
63 441 255 507 498 24 86 23 261 -1 349 -49 181 -193 357 -356 438 -47 23
-114 48 -150 57 -81 18 -245 18 -325 -1z m315 -56 c81 -19 202 -84 268 -143
134 -122 198 -257 209 -440 9 -177 -45 -330 -163 -455 -83 -88 -157 -136 -260
-172 -409 -141 -834 161 -834 593 0 179 57 316 185 445 163 163 372 224 595
172z"/>
<path d="M4823 3220 c-291 -103 -376 -474 -160 -691 162 -161 416 -165 581 -9
279 264 93 723 -291 719 -49 0 -98 -7 -130 -19z m272 -61 c74 -28 148 -97 187
-177 30 -60 33 -75 33 -157 0 -78 -4 -98 -29 -152 -35 -76 -104 -144 -184
-181 -48 -22 -71 -27 -142 -26 -110 0 -186 32 -260 110 -77 82 -95 128 -95
249 0 91 3 105 29 158 86 170 280 244 461 176z"/>
</g>
</svg>
