<?xml version="1.0" standalone="no"?>
<!DOCTYPE svg PUBLIC "-//W3C//DTD SVG 20010904//EN"
 "http://www.w3.org/TR/2001/REC-SVG-20010904/DTD/svg10.dtd">
<svg version="1.0" xmlns="http://www.w3.org/2000/svg"
 width="189.912668pt" height="69.087619pt" viewBox="0 0 189.912668 69.087619"
 preserveAspectRatio="xMidYMid meet">
<metadata>
Created by potrace 1.12, written by Peter Selinger 2001-2015
</metadata>
<g transform="translate(-4.000000,135.087619) scale(0.100000,-0.100000)"
fill="#000000" stroke="none">
<path d="M40 1134 c0 -200 2 -219 20 -249 38 -61 141 -83 215 -45 39 20 39 20
80 0 53 -26 115 -25 165 0 66 34 70 50 70 295 l0 216 -72 -3 -73 -3 -3 -197
-2 -198 -25 0 -25 0 -2 198 -3 197 -72 3 -73 3 -2 -198 c-3 -190 -4 -198 -23
-198 -19 0 -20 8 -25 195 l-5 195 -72 3 -73 3 0 -217z"/>
<path d="M1855 1316 c-30 -45 16 -91 61 -61 29 18 31 46 6 68 -26 24 -49 21
-67 -7z"/>
<path d="M640 1285 l0 -45 55 0 55 0 0 45 0 45 -55 0 -55 0 0 -45z"/>
<path d="M1694 1201 c-81 -20 -134 -96 -134 -192 0 -104 60 -179 154 -193 62
-10 114 7 158 49 46 45 61 91 56 165 -7 100 -65 162 -164 174 -21 3 -53 1 -70
-3z m103 -128 c22 -34 22 -92 0 -126 -13 -21 -26 -27 -52 -27 -42 0 -70 35
-70 90 0 55 28 90 70 90 26 0 39 -6 52 -27z"/>
<path d="M980 1193 c-8 -3 -25 -14 -36 -25 -21 -19 -21 -19 -27 1 -4 18 -13
21 -61 21 l-56 0 0 -190 0 -190 60 0 60 0 1 103 c1 56 4 115 8 131 8 37 34 55
59 40 14 -9 18 -32 22 -140 l5 -129 63 -3 62 -3 0 153 c0 134 -3 157 -20 185
-24 40 -93 63 -140 46z"/>
<path d="M640 1000 l0 -190 55 0 55 0 0 190 0 190 -55 0 -55 0 0 -190z"/>
<path d="M1244 1171 c-90 -55 -94 -271 -6 -329 32 -21 94 -20 126 2 14 9 28
16 32 16 11 0 -3 -89 -16 -105 -18 -21 -65 -19 -81 4 -10 14 -28 21 -64 23
-48 3 -50 2 -47 -22 9 -66 64 -100 163 -100 82 0 126 22 150 74 16 36 19 68
19 249 l0 207 -56 0 c-47 0 -57 -3 -61 -20 -5 -20 -5 -20 -30 0 -32 25 -88 26
-129 1z m136 -110 c5 -11 10 -40 10 -65 0 -37 -5 -49 -24 -61 -41 -27 -76 6
-76 73 0 60 65 98 90 53z"/>
</g>
</svg>
